<?xml version="1.0" encoding="utf-8"?>
<!-- Generator: Adobe Illustrator 19.0.0, SVG Export Plug-In . SVG Version: 6.00 Build 0)  -->
<svg version="1.1" id="Capa_2" xmlns="http://www.w3.org/2000/svg" xmlns:xlink="http://www.w3.org/1999/xlink" x="0px" y="0px"
	 viewBox="0 0 250 150" style="enable-background:new 0 0 250 150;" xml:space="preserve">
<style type="text/css">
	.st0{fill:#FFFFFF;}
	.st1{fill:none;stroke:#000000;stroke-width:0.363;stroke-miterlimit:3.864;}
	.st2{fill:none;stroke:#000000;stroke-width:0.5;stroke-miterlimit:3.864;}
	.st3{font-family:'Raleway';}
	.st4{font-size:25px;}
</style>
<rect x="81.8" y="18" class="st0" width="39" height="3.7"/>
<rect x="81.8" y="18" class="st1" width="39" height="3.7"/>
<rect x="120.4" y="18" class="st0" width="39" height="3.7"/>
<rect x="120.4" y="18" class="st1" width="39" height="3.7"/>
<path class="st0" d="M95,79.6c0.7-0.6,1.1-1.4,1.2-2.2L158,22.8l-3.6-4L92.6,73.4c-0.8,0-1.7,0.3-2.3,0.9c-1.5,1.3-1.6,3.6-0.3,5
	C91.3,80.8,93.5,80.9,95,79.6"/>
<path class="st2" d="M95,79.6c0.7-0.6,1.1-1.4,1.2-2.2L158,22.8l-3.6-4L92.6,73.4c-0.8,0-1.7,0.3-2.3,0.9c-1.5,1.3-1.6,3.6-0.3,5
	C91.3,80.8,93.5,80.9,95,79.6z"/>
<path class="st0" d="M145.5,79.6c-0.7-0.6-1.1-1.4-1.2-2.2L82.6,22.8l3.6-4L148,73.4c0.8,0,1.7,0.3,2.3,0.9c1.5,1.3,1.6,3.6,0.3,5
	C149.2,80.8,147,80.9,145.5,79.6"/>
<path class="st2" d="M145.5,79.6c-0.7-0.6-1.1-1.4-1.2-2.2L82.6,22.8l3.6-4L148,73.4c0.8,0,1.7,0.3,2.3,0.9c1.5,1.3,1.6,3.6,0.3,5
	C149.2,80.8,147,80.9,145.5,79.6z"/>
<line class="st2" x1="30.4" y1="105.2" x2="211.7" y2="105.2"/>
<rect x="32.9" y="18" class="st0" width="49.1" height="15"/>
<rect x="32.9" y="18" class="st2" width="49.1" height="15"/>
<rect x="159.5" y="18" class="st0" width="49.1" height="15"/>
<rect x="159.5" y="18" class="st2" width="49.1" height="15"/>
<text transform="matrix(1 0 0 1 73.433 137.1793)" class="st3 st4">214 x 70</text>
</svg>
