<?xml version="1.0" encoding="utf-8"?>
<!-- Generator: Adobe Illustrator 19.0.0, SVG Export Plug-In . SVG Version: 6.00 Build 0)  -->
<svg version="1.1" id="Capa_2" xmlns="http://www.w3.org/2000/svg" xmlns:xlink="http://www.w3.org/1999/xlink" x="0px" y="0px"
	 viewBox="0 0 100 250" style="enable-background:new 0 0 100 250;" xml:space="preserve">
<g>
	<g transform="translate(0.000000,512.000000) scale(0.100000,-0.100000)">
		<path d="M671.6,5032c-6.6-2.9-8.9-6-9.6-12.3c-0.7-5.7-0.3-6.9,3.4-10.7c3.1-3,6.1-4.4,11.3-5c40.4-5,72.9-21.9,105.3-54.4
			c30.7-31,49.9-68,54.6-105.6c1.9-13.7,13.7-19.6,23.4-11.4c5.9,4.9,6.7,10.9,3.9,26c-11.3,62.2-60.6,125.8-121.2,156.2
			C717.9,5027.2,681,5036.2,671.6,5032z"/>
		<path d="M548,4944.9c-8.9-0.6-22.6-5.6-29.9-10.7c-3.6-2.6-88.7-87.3-189.3-188.3c-200.5-201.5-189.6-189.6-193.3-211
			c-1.3-7.7-1.3-12.1,0.1-19.9c3.7-20.7,0.7-17.3,97.7-114.3c72.4-72.6,90.3-89.7,97.3-93.6c8.6-4.6,9-4.7,27.3-4.7
			c31.9,0,9.3-19.6,221.6,192.5c127.3,127.2,184.5,185.2,187.8,190.6c13.3,22,13.9,48.4,1.3,68.6c-5.9,9.3-172.8,176.2-182.1,181.9
			C575.8,4942.7,561.7,4946,548,4944.9z M567.3,4913c4.9-2.1,26.3-22.7,90.9-87.5c46.6-46.6,85.7-86.9,87.2-89.6
			c4-7.6,3.6-23.1-0.7-31.4c-5-9.9-361.3-366.1-370.8-370.8c-9-4.6-21.4-4.9-29.2-0.9c-8,4.1-175.5,172.5-178.2,179.1
			c-2.7,6.7-2.7,19.7,0,26.3c1.3,3.3,62.7,65.9,182.5,186.3c99.3,99.6,182.3,182.6,184.6,184.5
			C542.8,4916.3,556.4,4917.9,567.3,4913z"/>
		<path d="M530.1,4827.3c-45.9-5.1-85.7-39.3-98.6-84.5c-3.9-13.3-5.3-37.3-3-50.4c8.7-49.7,46.9-87.9,96.6-96.6
			c13.1-2.3,37.2-0.9,50.4,3c45.7,13,79.3,52.7,84.4,99.7C668.2,4773.1,605,4835.7,530.1,4827.3z M570.6,4794.7
			c14.3-5,25.6-12,35.3-21.6c26.7-26.7,33.1-67.6,16.1-101.6c-5.9-11.7-18.6-26-30.2-33.6c-4.4-3-13.6-7.3-20.3-9.6
			c-10-3.6-14.6-4.3-25.7-4.3c-16.6-0.1-25.7,1.9-41.3,9.3c-16.7,8-30.4,21.7-38.4,38.4c-7.4,15.6-9.4,24.7-9.3,41.3
			c0.1,38.6,26.9,72.6,65,82.9C535.4,4799.7,558.1,4799.1,570.6,4794.7z"/>
		<path d="M533,4737.9c-11.1-4.9-17.6-14.3-17.7-26.3c-0.3-27,32.4-39.7,50.2-19.4c5.7,6.4,8,13.7,7.3,22.6
			C570.8,4733.4,550.1,4745.4,533,4737.9z"/>
		<path d="M346.9,4636.6c-9.1-2.3-15.3-7.3-19.1-15.6c-4.4-9.4-4.3-15.7,0.3-25c5.1-10.1,12.3-14.9,24-15.6
			c36.6-2.1,42.4,50.2,6.4,56.9C355.6,4637.9,350.5,4637.6,346.9,4636.6z"/>
		<path d="M267.2,4561.3c-18.1-9.7-20.9-34.3-5.4-47.4c19-16.3,48.3-2.4,48.3,22.7c0,7-6.4,18.4-13,23
			C288.6,4565.3,276.2,4566,267.2,4561.3z"/>
		<path d="M430.8,4548.2c-12.3-5.3-18.7-16.4-17.6-30c0.9-10.7,5.9-18,15.6-22.9c9.3-4.6,15.6-4.7,25-0.3c22.7,10.6,22,43.3-1.1,53
			C446.2,4550.6,436.7,4550.7,430.8,4548.2z"/>
		<path d="M359.4,4475.6c-19.6-6.9-26.2-30.9-12.7-46.6c13.1-15.4,37.7-12.7,47.4,5.4c4.7,9,4,21.4-1.7,29.9
			C385.2,4474.6,370.8,4479.6,359.4,4475.6z"/>
		<path d="M665.7,4940.4c-5.6-5.6-5.7-13.4-0.6-19.1c2-2.1,4.1-3.9,4.7-3.9c0.6,0,5.4-1,10.7-2.1c31.7-6.7,61.2-36.4,67.6-68.2
			c2.6-12.6,7.4-18.3,15.7-18.3c6,0,13.3,6.3,13.6,11.7c0.6,11-2.1,22.1-8.7,36.3c-12,26-33.1,47.2-59.2,59.2
			c-13.6,6.3-22.3,8.6-32.3,8.6C671,4944.6,669.3,4943.9,665.7,4940.4z"/>
	</g>
</g>
<g>
	<path d="M65.8,107.9v33.4c0,2.7-2.2,5-5,5s-5-2.2-5-5v-1.5c-0.4,0.1-0.9,0.1-1.4,0.1H39c-5,0-9-4-9-9v-2.1h-3.9
		c-1.7,0-2.4-0.9-2.7-2.2c-8.7-1.9-15.3-11.3-9.2-19.9c2.6-3.6,8-7.6,6.2-12.7c-1.8-5.1-7.7-8-11-12c-2.2-2.6,1.6-6.5,3.8-3.8
		c3.4,4,8.3,6.7,11,11.3c2.5,4.2,2.7,9.3-0.1,13.4c-2.4,3.5-7.4,7.1-6.8,11.8c0.4,3.3,3.1,5.6,6.1,6.4l0-0.1
		c0.3-1.2,1.1-1.9,2.6-1.9H30v-0.9c0-5,4-9,9-9h15.5c0.5,0,0.9,0,1.4,0.1v-1.5c0-2.7,2.2-5,5-5S65.8,105.1,65.8,107.9z M85,115.3
		c0-1.9-1.6-3.5-3.5-3.5H67.3v7.1h14.2C83.4,118.8,85,117.3,85,115.3z M81.4,130.1H67.3v7.1h14.2c1.9,0,3.5-1.6,3.5-3.5
		C85,131.7,83.4,130.1,81.4,130.1z"/>
</g>
<path d="M76,60.1c-4,0-7.7,0.9-10.3,3.8c-2.6,2.8-3.9,7.3-3.9,14c0,6.7,1.4,11.2,3.9,14c2.6,2.8,6.3,3.8,10.3,3.8s7.7-0.9,10.3-3.8
	c2.6-2.8,3.9-7.3,3.9-14c0-6.7-1.4-11.2-3.9-14C83.7,61.1,80,60.1,76,60.1z M74.2,63.7l10.7,8.9l-7.1,5.3l7.1,5.3l-10.7,8.9V81.4
	l-4.8,3.2l-2.2-2.8l5.2-3.9L67.2,74l2.2-2.8l4.8,3.2V63.7z M77.8,70.8v3.6l1.8-1.8L77.8,70.8z M77.8,81.4V85l1.8-1.8L77.8,81.4z"/>
</svg>
