<?xml version="1.0" encoding="utf-8"?>
<!-- Generator: Adobe Illustrator 19.0.0, SVG Export Plug-In . SVG Version: 6.00 Build 0)  -->
<svg version="1.1" id="Capa_3" xmlns="http://www.w3.org/2000/svg" xmlns:xlink="http://www.w3.org/1999/xlink" x="0px" y="0px"
	 viewBox="0 0 250 150" style="enable-background:new 0 0 250 150;" xml:space="preserve">
<style type="text/css">
	.st0{fill:#FFFFFF;}
	.st1{fill:none;stroke:#000000;stroke-width:0.363;stroke-miterlimit:3.864;}
	.st2{fill:none;stroke:#000000;stroke-width:0.5;stroke-miterlimit:3.864;}
	.st3{font-family:'Raleway';}
	.st4{font-size:25px;}
</style>
<rect x="105.2" y="18.2" class="st0" width="41.5" height="3.6"/>
<rect x="105.2" y="18.2" class="st1" width="41.5" height="3.6"/>
<line class="st2" x1="51.2" y1="99" x2="196.5" y2="99"/>
<path class="st0" d="M152.2,80.6c-0.7-0.6-1.1-1.4-1.2-2.3L93.3,29.4l3.8-4l57.7,48.9c0.9,0,1.8,0.3,2.5,0.9
	c1.5,1.3,1.7,3.6,0.3,5.1C156.2,81.8,153.8,81.9,152.2,80.6"/>
<path class="st2" d="M152.2,80.6c-0.7-0.6-1.1-1.4-1.2-2.3L93.3,29.4l3.8-4l57.7,48.9c0.9,0,1.8,0.3,2.5,0.9
	c1.5,1.3,1.7,3.6,0.3,5.1C156.2,81.8,153.8,81.9,152.2,80.6z"/>
<path class="st0" d="M99.6,80.6c0.7-0.6,1.1-1.4,1.2-2.3l57.7-48.9l-3.8-4L97,74.3c-0.9,0-1.8,0.3-2.5,0.9c-1.5,1.3-1.7,3.6-0.3,5.1
	C95.7,81.8,98,81.9,99.6,80.6"/>
<path class="st2" d="M99.6,80.6c0.7-0.6,1.1-1.4,1.2-2.3l57.7-48.9l-3.8-4L97,74.3c-0.9,0-1.8,0.3-2.5,0.9c-1.5,1.3-1.7,3.6-0.3,5.1
	C95.7,81.8,98,81.9,99.6,80.6z"/>
<rect x="53" y="18.2" class="st0" width="52.3" height="15.1"/>
<rect x="53" y="18.2" class="st2" width="52.3" height="15.1"/>
<rect x="146.4" y="18.2" class="st0" width="52.3" height="15.1"/>
<rect x="146.4" y="18.2" class="st2" width="52.3" height="15.1"/>
<text transform="matrix(1 0 0 1 79.1499 129.179)" class="st3 st4">167 x 80</text>
</svg>
