<?xml version="1.0" encoding="utf-8"?>
<!-- Generator: Adobe Illustrator 19.0.0, SVG Export Plug-In . SVG Version: 6.00 Build 0)  -->
<svg version="1.1" id="Capa_2" xmlns="http://www.w3.org/2000/svg" xmlns:xlink="http://www.w3.org/1999/xlink" x="0px" y="0px"
	 viewBox="0 0 250 150" style="enable-background:new 0 0 250 150;" xml:space="preserve">
<style type="text/css">
	.st0{font-family:'Raleway';}
	.st1{font-size:25px;}
	.st2{fill:none;stroke:#000000;stroke-width:0.5;stroke-miterlimit:3.864;}
	.st3{fill:#FFFFFF;}
</style>
<text transform="matrix(1 0 0 1 14.8864 58.4573)" class="st0 st1">77</text>
<text transform="matrix(1 0 0 1 204.0919 29.0296)" class="st0 st1">12</text>
<text transform="matrix(1 0 0 1 204.0919 70.721)" class="st0 st1">65</text>
<line class="st2" x1="55.3" y1="8.8" x2="55.3" y2="87.5"/>
<path class="st3" d="M148.5,78.6c-0.7-0.6-1.1-1.5-1.2-2.3L90.8,25.9l3.7-4.1l56.6,50.4c0.9,0,1.7,0.3,2.4,1
	c1.5,1.4,1.6,3.7,0.3,5.2C152.4,79.8,150.1,80,148.5,78.6"/>
<path class="st2" d="M148.5,78.6c-0.7-0.6-1.1-1.5-1.2-2.3L90.8,25.9l3.7-4.1l56.6,50.4c0.9,0,1.7,0.3,2.4,1
	c1.5,1.4,1.6,3.7,0.3,5.2C152.4,79.8,150.1,80,148.5,78.6z"/>
<path class="st3" d="M97,78.6c0.7-0.6,1.1-1.5,1.2-2.3l56.6-50.4l-3.7-4.1L94.4,72.1c-0.9,0-1.7,0.3-2.4,1c-1.5,1.4-1.6,3.7-0.3,5.2
	S95.5,80,97,78.6"/>
<path class="st2" d="M97,78.6c0.7-0.6,1.1-1.5,1.2-2.3l56.6-50.4l-3.7-4.1L94.4,72.1c-0.9,0-1.7,0.3-2.4,1c-1.5,1.4-1.6,3.7-0.3,5.2
	S95.5,80,97,78.6z"/>
<rect x="67.4" y="14.3" class="st3" width="110.8" height="15.6"/>
<rect x="67.4" y="14.3" class="st2" width="110.8" height="15.6"/>
<path class="st2" d="M193.3,37.4v44.7 M193.3,8.8v20.4"/>
<text transform="matrix(1 0 0 1 77.7636 123.8457)" class="st0 st1">120 x 80</text>
</svg>
