<?xml version="1.0" encoding="utf-8"?>
<!-- Generator: Adobe Illustrator 19.0.0, SVG Export Plug-In . SVG Version: 6.00 Build 0)  -->
<svg version="1.1" id="Capa_1" xmlns="http://www.w3.org/2000/svg" xmlns:xlink="http://www.w3.org/1999/xlink" x="0px" y="0px"
	 viewBox="0 0 250 150" style="enable-background:new 0 0 250 150;" xml:space="preserve">
<style type="text/css">
	.st0{font-family:'Raleway';}
	.st1{font-size:25px;}
	.st2{fill:#FFFFFF;}
	.st3{fill:none;stroke:#000000;stroke-width:0.5;stroke-miterlimit:3.864;}
</style>
<text transform="matrix(1 0 0 1 16.2225 64.5502)" class="st0 st1">38</text>
<text transform="matrix(1 0 0 1 70.0998 123.5332)" class="st0 st1">120 x 80</text>
<path class="st2" d="M160,80.7c-1-0.3-1.7-1-2.2-1.8l-78.3-25l1.9-5.7l78.3,25c0.9-0.4,1.9-0.4,2.8-0.1c2.1,0.7,3.3,3,2.6,5.1
	C164.3,80.2,162.1,81.4,160,80.7"/>
<path class="st3" d="M160,80.7c-1-0.3-1.7-1-2.2-1.8l-78.3-25l1.9-5.7l78.3,25c0.9-0.4,1.9-0.4,2.8-0.1c2.1,0.7,3.3,3,2.6,5.1
	C164.3,80.2,162.1,81.4,160,80.7z"/>
<path class="st2" d="M84.7,80.7c1-0.3,1.7-1,2.2-1.8l78.3-25l-1.9-5.7L85,73.2c-0.9-0.4-1.9-0.4-2.8-0.1c-2.1,0.7-3.3,3-2.6,5.1
	C80.3,80.2,82.6,81.4,84.7,80.7"/>
<path class="st3" d="M84.7,80.7c1-0.3,1.7-1,2.2-1.8l78.3-25l-1.9-5.7L85,73.2c-0.9-0.4-1.9-0.4-2.8-0.1c-2.1,0.7-3.3,3-2.6,5.1
	C80.3,80.2,82.6,81.4,84.7,80.7z"/>
<line class="st3" x1="53.2" y1="43" x2="53.2" y2="80.7"/>
<line class="st3" x1="64.5" y1="100.1" x2="169.1" y2="100.1"/>
<rect x="70.1" y="46.9" class="st2" width="104.5" height="16.9"/>
<rect x="70.1" y="46.9" class="st3" width="104.5" height="16.9"/>
</svg>
