<?xml version="1.0" encoding="utf-8"?>
<!-- Generator: Adobe Illustrator 19.0.0, SVG Export Plug-In . SVG Version: 6.00 Build 0)  -->
<svg version="1.1" id="Capa_2" xmlns="http://www.w3.org/2000/svg" xmlns:xlink="http://www.w3.org/1999/xlink" x="0px" y="0px"
	 viewBox="0 0 250 150" style="enable-background:new 0 0 250 150;" xml:space="preserve">
<style type="text/css">
	.st0{fill:#FFFFFF;}
	.st1{fill:none;stroke:#000000;stroke-width:0.363;stroke-miterlimit:3.864;}
	.st2{fill:none;stroke:#000000;stroke-width:0.5;stroke-miterlimit:3.864;}
	.st3{font-family:'Raleway';}
	.st4{font-size:25px;}
</style>
<rect x="100" y="28.1" class="st0" width="39.8" height="3.7"/>
<rect x="100" y="28.1" class="st1" width="39.8" height="3.7"/>
<line class="st2" x1="70.7" y1="105.8" x2="193" y2="105.8"/>
<path class="st0" d="M145.1,91c-0.7-0.6-1.1-1.4-1.2-2.3L88.7,39.5l3.6-4l55.3,49.3c0.9,0,1.7,0.3,2.4,0.9c1.5,1.3,1.6,3.6,0.3,5.1
	C148.9,92.2,146.6,92.4,145.1,91"/>
<path class="st2" d="M145.1,91c-0.7-0.6-1.1-1.4-1.2-2.3L88.7,39.5l3.6-4l55.3,49.3c0.9,0,1.7,0.3,2.4,0.9c1.5,1.3,1.6,3.6,0.3,5.1
	C148.9,92.2,146.6,92.4,145.1,91z"/>
<path class="st0" d="M94.7,91c0.7-0.6,1.1-1.4,1.2-2.3l55.3-49.3l-3.6-4L92.2,84.7c-0.9,0-1.7,0.3-2.4,0.9c-1.5,1.3-1.6,3.6-0.3,5.1
	C90.9,92.2,93.2,92.4,94.7,91"/>
<path class="st2" d="M94.7,91c0.7-0.6,1.1-1.4,1.2-2.3l55.3-49.3l-3.6-4L92.2,84.7c-0.9,0-1.7,0.3-2.4,0.9c-1.5,1.3-1.6,3.6-0.3,5.1
	C90.9,92.2,93.2,92.4,94.7,91z"/>
<rect x="139.6" y="28.1" class="st0" width="50.1" height="15.3"/>
<rect x="139.6" y="28.1" class="st2" width="50.1" height="15.3"/>
<rect x="79.9" y="28.1" class="st0" width="78.6" height="15.3"/>
<rect x="79.9" y="28.1" class="st2" width="78.6" height="15.3"/>
<text transform="matrix(1 0 0 1 90.9783 130.6664)" class="st3 st4">115 x 90</text>
</svg>
