<?xml version="1.0" encoding="utf-8"?>
<!-- Generator: Adobe Illustrator 19.0.0, SVG Export Plug-In . SVG Version: 6.00 Build 0)  -->
<svg version="1.1" id="Capa_1" xmlns="http://www.w3.org/2000/svg" xmlns:xlink="http://www.w3.org/1999/xlink" x="0px" y="0px"
	 viewBox="0 0 250 150" style="enable-background:new 0 0 250 150;" xml:space="preserve">
<style type="text/css">
	.st0{display:none;}
	.st1{display:inline;fill:#FFFFFF;}
	.st2{display:inline;fill:none;stroke:#000000;stroke-width:0.363;stroke-miterlimit:3.864;}
	.st3{display:inline;fill:none;stroke:#000000;stroke-width:0.5;stroke-miterlimit:3.864;}
	.st4{fill:#FFFFFF;}
	.st5{fill:none;stroke:#000000;stroke-width:0.363;stroke-miterlimit:3.864;}
	.st6{fill:none;stroke:#000000;stroke-width:0.5;stroke-miterlimit:3.864;}
	.st7{font-family:'Raleway';}
	.st8{font-size:25px;}
</style>
<g id="Capa_2" class="st0">
	<rect x="100" y="28.1" class="st1" width="39.8" height="3.7"/>
	<rect x="100" y="28.1" class="st2" width="39.8" height="3.7"/>
	<line class="st3" x1="70.7" y1="105.8" x2="193" y2="105.8"/>
	<path class="st1" d="M145.1,91c-0.7-0.6-1.1-1.4-1.2-2.3L88.7,39.5l3.6-4l55.3,49.3c0.9,0,1.7,0.3,2.4,0.9c1.5,1.3,1.6,3.6,0.3,5.1
		C148.9,92.2,146.6,92.4,145.1,91"/>
	<path class="st3" d="M145.1,91c-0.7-0.6-1.1-1.4-1.2-2.3L88.7,39.5l3.6-4l55.3,49.3c0.9,0,1.7,0.3,2.4,0.9c1.5,1.3,1.6,3.6,0.3,5.1
		C148.9,92.2,146.6,92.4,145.1,91z"/>
	<path class="st1" d="M94.7,91c0.7-0.6,1.1-1.4,1.2-2.3l55.3-49.3l-3.6-4L92.2,84.7c-0.9,0-1.7,0.3-2.4,0.9
		c-1.5,1.3-1.6,3.6-0.3,5.1C90.9,92.2,93.2,92.4,94.7,91"/>
	<path class="st3" d="M94.7,91c0.7-0.6,1.1-1.4,1.2-2.3l55.3-49.3l-3.6-4L92.2,84.7c-0.9,0-1.7,0.3-2.4,0.9
		c-1.5,1.3-1.6,3.6-0.3,5.1C90.9,92.2,93.2,92.4,94.7,91z"/>
	<rect x="139.6" y="28.1" class="st1" width="50.1" height="15.3"/>
	<rect x="139.6" y="28.1" class="st3" width="50.1" height="15.3"/>
	<rect x="79.9" y="28.1" class="st1" width="78.6" height="15.3"/>
	<rect x="79.9" y="28.1" class="st3" width="78.6" height="15.3"/>
</g>
<g id="Capa_3">
	<rect x="80" y="28.1" class="st4" width="39" height="3.7"/>
	<rect x="80" y="28.1" class="st5" width="39" height="3.7"/>
	<rect x="118.7" y="28.1" class="st4" width="39" height="3.7"/>
	<rect x="118.7" y="28.1" class="st5" width="39" height="3.7"/>
	<path class="st4" d="M93.2,89.8c0.7-0.6,1.1-1.4,1.2-2.2l61.9-54.7l-3.6-4L90.8,83.6c-0.8,0-1.7,0.3-2.3,0.9
		c-1.5,1.3-1.6,3.6-0.3,5C89.5,91,91.8,91.2,93.2,89.8"/>
	<path class="st6" d="M93.2,89.8c0.7-0.6,1.1-1.4,1.2-2.2l61.9-54.7l-3.6-4L90.8,83.6c-0.8,0-1.7,0.3-2.3,0.9
		c-1.5,1.3-1.6,3.6-0.3,5C89.5,91,91.8,91.2,93.2,89.8z"/>
	<path class="st4" d="M143.8,89.8c-0.7-0.6-1.1-1.4-1.2-2.2L80.8,32.9l3.6-4l61.9,54.7c0.8,0,1.7,0.3,2.3,0.9c1.5,1.3,1.6,3.6,0.3,5
		S145.3,91.2,143.8,89.8"/>
	<path class="st6" d="M143.8,89.8c-0.7-0.6-1.1-1.4-1.2-2.2L80.8,32.9l3.6-4l61.9,54.7c0.8,0,1.7,0.3,2.3,0.9c1.5,1.3,1.6,3.6,0.3,5
		S145.3,91.2,143.8,89.8z"/>
	<line class="st6" x1="29" y1="106.7" x2="207.2" y2="106.7"/>
	<rect x="31" y="28.1" class="st4" width="176.2" height="15"/>
	<rect x="31" y="28.1" class="st6" width="176.2" height="15"/>
	<rect x="60.7" y="28" class="st6" width="109.7" height="15.4"/>
	<text transform="matrix(1 0 0 1 73.7732 133.6667)" class="st7 st8">115 x 115</text>
</g>
</svg>
