<?xml version="1.0" encoding="utf-8"?>
<!-- Generator: Adobe Illustrator 19.0.0, SVG Export Plug-In . SVG Version: 6.00 Build 0)  -->
<svg version="1.1" id="Capa_3" xmlns="http://www.w3.org/2000/svg" xmlns:xlink="http://www.w3.org/1999/xlink" x="0px" y="0px"
	 viewBox="0 0 250 150" style="enable-background:new 0 0 250 150;" xml:space="preserve">
<style type="text/css">
	.st0{font-family:'Raleway';}
	.st1{font-size:25px;}
	.st2{fill:none;stroke:#000000;stroke-width:0.5;stroke-miterlimit:3.864;}
	.st3{fill:#FFFFFF;}
</style>
<text transform="matrix(1 0 0 1 8.5506 72.1192)" class="st0 st1">75</text>
<text transform="matrix(1 0 0 1 207.9863 54.8078)" class="st0 st1">10</text>
<text transform="matrix(1 0 0 1 207.9863 87.964)" class="st0 st1">65</text>
<line class="st2" x1="68.6" y1="28.8" x2="68.6" y2="102.5"/>
<path class="st3" d="M156,94.2c-0.7-0.6-1-1.4-1.1-2.2l-53-47.2l3.5-3.9l53,47.2c0.8,0,1.6,0.3,2.3,0.9c1.4,1.3,1.5,3.5,0.3,4.9
	C159.6,95.3,157.4,95.4,156,94.2"/>
<path class="st2" d="M156,94.2c-0.7-0.6-1-1.4-1.1-2.2l-53-47.2l3.5-3.9l53,47.2c0.8,0,1.6,0.3,2.3,0.9c1.4,1.3,1.5,3.5,0.3,4.9
	C159.6,95.3,157.4,95.4,156,94.2z"/>
<path class="st3" d="M107.7,94.2c0.7-0.6,1-1.4,1.1-2.2l53-47.2l-3.5-3.9l-53,47.2c-0.8,0-1.6,0.3-2.3,0.9c-1.4,1.3-1.5,3.5-0.3,4.9
	C104,95.3,106.2,95.4,107.7,94.2"/>
<path class="st2" d="M107.7,94.2c0.7-0.6,1-1.4,1.1-2.2l53-47.2l-3.5-3.9l-53,47.2c-0.8,0-1.6,0.3-2.3,0.9c-1.4,1.3-1.5,3.5-0.3,4.9
	C104,95.3,106.2,95.4,107.7,94.2z"/>
<rect x="79.9" y="33.9" class="st3" width="103.7" height="14.6"/>
<rect x="79.9" y="33.9" class="st2" width="103.7" height="14.6"/>
<path class="st2" d="M197.9,55.6v41.8 M197.9,28.8v19.1"/>
<text transform="matrix(1 0 0 1 87.6449 121.1554)" class="st0 st1">115 x 65</text>
</svg>
