<?xml version="1.0" encoding="utf-8"?>
<!-- Generator: Adobe Illustrator 19.0.0, SVG Export Plug-In . SVG Version: 6.00 Build 0)  -->
<svg version="1.1" id="Capa_2" xmlns="http://www.w3.org/2000/svg" xmlns:xlink="http://www.w3.org/1999/xlink" x="0px" y="0px"
	 viewBox="0 0 250 150" style="enable-background:new 0 0 250 150;" xml:space="preserve">
<style type="text/css">
	.st0{font-family:'Raleway';}
	.st1{font-size:25px;}
	.st2{fill:#FFFFFF;}
	.st3{fill:none;stroke:#000000;stroke-width:0.5;stroke-miterlimit:3.864;}
</style>
<text transform="matrix(1 0 0 1 32.5007 53.808)" class="st0 st1">40</text>
<text transform="matrix(1 0 0 1 86.0999 115.1923)" class="st0 st1">115 x 65</text>
<path class="st2" d="M177.7,64.7c-1-0.3-1.8-1-2.3-1.8L95.6,37.4l1.9-5.9L177.4,57c0.9-0.4,1.9-0.5,2.9-0.1c2.2,0.7,3.3,3,2.6,5.2
	S179.9,65.4,177.7,64.7"/>
<path class="st3" d="M177.7,64.7c-1-0.3-1.8-1-2.3-1.8L95.6,37.4l1.9-5.9L177.4,57c0.9-0.4,1.9-0.5,2.9-0.1c2.2,0.7,3.3,3,2.6,5.2
	S179.9,65.4,177.7,64.7z"/>
<path class="st2" d="M101,64.7c1-0.3,1.8-1,2.3-1.8l79.9-25.5l-1.9-5.9l-80,25.6c-0.9-0.4-1.9-0.5-2.9-0.1c-2.2,0.7-3.3,3-2.6,5.2
	C96.5,64.3,98.8,65.4,101,64.7"/>
<path class="st3" d="M101,64.7c1-0.3,1.8-1,2.3-1.8l79.9-25.5l-1.9-5.9l-80,25.6c-0.9-0.4-1.9-0.5-2.9-0.1c-2.2,0.7-3.3,3-2.6,5.2
	C96.5,64.3,98.8,65.4,101,64.7z"/>
<line class="st3" x1="80.4" y1="84.5" x2="187.1" y2="84.5"/>
<line class="st3" x1="68.9" y1="26.3" x2="68.9" y2="64.7"/>
<rect x="86.1" y="30.2" class="st2" width="106.5" height="17.3"/>
<rect x="86.1" y="30.2" class="st3" width="106.5" height="17.3"/>
</svg>
