<?xml version="1.0" encoding="utf-8"?>
<!-- Generator: Adobe Illustrator 19.0.0, SVG Export Plug-In . SVG Version: 6.00 Build 0)  -->
<svg version="1.1" id="Capa_1" xmlns="http://www.w3.org/2000/svg" xmlns:xlink="http://www.w3.org/1999/xlink" x="0px" y="0px"
	 viewBox="-172 345.9 250 150" style="enable-background:new -172 345.9 250 150;" xml:space="preserve">
<style type="text/css">
	.st0{fill:none;stroke:#010202;stroke-width:0.5;stroke-miterlimit:3.864;}
	.st1{fill:#010202;}
	.st2{font-family:'Raleway', 'Open Sans', sans-serif;}
	.st3{font-size:30.9975px;}
	.st4{letter-spacing:-2;}
</style>
<path id="XMLID_65_" class="st0" d="M-165.3,352.2H-4.2v3.7h-161.1V352.2z M-18.7,383.1h14.6v62.7h-14.6V383.1z M-165.3,383.1h14.6
	v62.7h-14.6V383.1z M-165.3,373.9H-4.2v9.3h-161.1V373.9z"/>
<rect id="XMLID_64_" x="-149.7" y="356" class="st1" width="1.7" height="17.9"/>
<rect id="XMLID_63_" x="-149.7" y="356" class="st0" width="1.7" height="17.9"/>
<rect id="XMLID_62_" x="-21.7" y="356" class="st1" width="1.7" height="17.9"/>
<rect id="XMLID_61_" x="-21.7" y="356" class="st0" width="1.7" height="17.9"/>
<path id="XMLID_58_" class="st0" d="M15.4,373.4v72.8 M6.2,351.4v94.8"/>
<text id="XMLID_57_" transform="matrix(1 0 0 1 21.3548 425.2683)" class="st2 st3 st4">55,5</text>
<text id="XMLID_56_" transform="matrix(1 0 0 1 21.3552 372.9318)" class="st2 st3 st4">58</text>
<text transform="matrix(1 0 0 1 -116.1213 490.4117)" class="st2 st3 st4">1</text>
<text transform="matrix(1 0 0 1 -103.1213 490.4117)" class="st2 st3 st4">15</text>
<line id="XMLID_54_" class="st0" x1="-166.2" y1="455.6" x2="-3.2" y2="455.6"/>
</svg>
