<?xml version="1.0" encoding="utf-8"?>
<!-- Generator: Adobe Illustrator 19.0.0, SVG Export Plug-In . SVG Version: 6.00 Build 0)  -->
<svg version="1.1" id="Capa_1" xmlns="http://www.w3.org/2000/svg" xmlns:xlink="http://www.w3.org/1999/xlink" x="0px" y="0px"
	 viewBox="0 0 350 141.7" style="enable-background:new 0 0 350 141.7;" xml:space="preserve">
<style type="text/css">
	.st0{fill:#010202;}
	.st1{font-family:'Raleway', 'Open Sans', sans-serif;}
	.st2{font-size:30.0056px;}
	.st3{fill:none;stroke:#010202;stroke-width:0.5;stroke-miterlimit:3.864;}
	.st4{fill:#FFFFFF;}
</style>
<text id="XMLID_15_" transform="matrix(1 0 0 1 289.5889 32.4116)" class="st0 st1 st2">60</text>
<text id="XMLID_14_" transform="matrix(1 0 0 1 299.8818 101.0346)" class="st0 st1 st2">43</text>
<polygon id="XMLID_13_" class="st3" points="54.8,52 64.1,52 61.4,139.5 57.4,139.5 "/>
<polygon id="XMLID_12_" class="st3" points="202.7,52 212.1,52 209.4,139.5 205.4,139.5 "/>
<line id="XMLID_11_" class="st3" x1="279.6" y1="1.6" x2="279.6" y2="137.5"/>
<line id="XMLID_10_" class="st3" x1="290.5" y1="52.3" x2="290.5" y2="137.5"/>
<rect id="XMLID_9_" x="170.2" y="11.5" class="st4" width="3.4" height="39.9"/>
<rect id="XMLID_8_" x="170.2" y="11.5" class="st3" width="3.4" height="39.9"/>
<rect id="XMLID_7_" x="92.9" y="11.5" class="st4" width="3.4" height="39.9"/>
<rect id="XMLID_6_" x="92.9" y="11.5" class="st3" width="3.4" height="39.9"/>
<rect id="XMLID_5_" x="14.6" y="52.1" class="st4" width="236.8" height="16.7"/>
<rect id="XMLID_4_" x="14.6" y="52.1" class="st3" width="236.8" height="16.7"/>
<polygon id="XMLID_3_" class="st4" points="3.2,6 262.4,6 259.7,12.5 5.9,12.5 "/>
<polygon id="XMLID_2_" class="st3" points="3.2,6 262.4,6 259.7,12.5 5.9,12.5 "/>
</svg>
