<?xml version="1.0" encoding="utf-8"?>
<!-- Generator: Adobe Illustrator 19.0.0, SVG Export Plug-In . SVG Version: 6.00 Build 0)  -->
<svg version="1.1" id="Capa_1" xmlns="http://www.w3.org/2000/svg" xmlns:xlink="http://www.w3.org/1999/xlink" x="0px" y="0px"
	 viewBox="0 0 250 141.7" style="enable-background:new 0 0 250 141.7;" xml:space="preserve">
<style type="text/css">
	.st0{fill:#010202;}
	.st1{font-family:'Raleway', 'Open Sans', sans-serif;}
	.st2{font-size:28.4092px;}
	.st3{fill:none;stroke:#010202;stroke-width:0.5;stroke-miterlimit:3.864;}
	.st4{fill:rgba(255,255,255,1);}
</style>
<text id="XMLID_11_" transform="matrix(1 0 0 1 129.3524 134.9743)" class="st0 st1 st2">65</text>
<line id="XMLID_10_" class="st3" x1="78.5" y1="104.4" x2="215.3" y2="104.4"/>
<polygon id="XMLID_9_" class="st3" points="100.7,7.3 109.6,7.3 107,90.1 103.3,90.1 "/>
<polygon id="XMLID_8_" class="st3" points="182.9,7.3 191.8,7.3 189.2,90.1 185.5,90.1 "/>
<line id="XMLID_7_" class="st3" x1="49" y1="4.7" x2="49" y2="85.4"/>
<text id="XMLID_6_" transform="matrix(1 0 0 1 2.6239 62.2497)" class="st0 st1 st2">43</text>
<rect id="XMLID_5_" x="87.9" y="7.3" class="st4" width="116" height="15.8"/>
<rect id="XMLID_4_" x="87.9" y="7.3" class="st3" width="116" height="15.8"/>
<polygon id="XMLID_3_" class="st4" points="79.4,1.9 214.5,1.9 211.9,8.1 81.9,8.1 "/>
<polygon id="XMLID_2_" class="st3" points="79.4,1.9 214.5,1.9 211.9,8.1 81.9,8.1 "/>
</svg>
