<?xml version="1.0" encoding="utf-8"?>
<!-- Generator: Adobe Illustrator 19.0.0, SVG Export Plug-In . SVG Version: 6.00 Build 0)  -->
<svg version="1.1" id="Capa_1" xmlns="http://www.w3.org/2000/svg" xmlns:xlink="http://www.w3.org/1999/xlink" x="0px" y="0px"
	 viewBox="0 0 736 120.6" style="enable-background:new 0 0 736 120.6;" xml:space="preserve">
<style type="text/css">
	.st0{fill:none;stroke:#000000;stroke-width:0.5;stroke-miterlimit:3.864;}
	.st1{fill:none;stroke:#000000;stroke-width:0.5;}
	.st2{font-family:'Avenir-Light';}
	.st3{font-size:17.4746px;}
	.st4{letter-spacing:78;}
	.st5{fill:#EBE9E7;}
</style>
<polygon class="st0" points="247.4,10.1 253.1,10.1 254.7,59.1 245.9,59.1 "/>
<polyline class="st1" points="254.9,59.1 273.5,59.1 265.8,10.8 "/>
<polyline class="st1" points="246,59.1 227.4,59.1 235.1,10.8 "/>
<polygon class="st0" points="437.4,10.1 443.1,10.1 444.6,59.1 435.8,59.1 "/>
<polyline class="st1" points="444.9,59.1 463.4,59.1 455.7,10.8 "/>
<polyline class="st1" points="435.9,59.1 417.3,59.1 425.1,10.8 "/>
<polygon class="st0" points="637.2,10.1 642.9,10.1 644.5,59.1 635.7,59.1 "/>
<polyline class="st1" points="644.7,59.1 663.3,59.1 655.6,10.8 "/>
<polyline class="st1" points="635.8,59.1 617.2,59.1 624.9,10.8 "/>
<polygon class="st0" points="90.5,10.1 96.2,10.1 97.8,59.1 89,59.1 "/>
<text transform="matrix(1 0 0 1 5.4425 39.6496)" class="st2 st3">76</text>
<text transform="matrix(1 0 0 1 77.8917 91.0422)" class="st2 st3">90</text>
<text transform="matrix(1 0 0 1 187.2316 92.8957)" class="st2 st3">cerrada 160 x 90</text>
<text transform="matrix(1 0 0 1 176.0997 112.5539)" class="st2 st3">2 extensibles de 47</text>
<text transform="matrix(1 0 0 1 381.5841 92.8957)"><tspan x="0" y="0" class="st2 st3">abierta 90 x 20</tspan><tspan x="106.2" y="0" class="st2 st3 st4">7</tspan><tspan x="193.2" y="0" class="st2 st3">abierta 90 x 254</tspan></text>
<rect x="186.2" y="1" class="st5" width="128.5" height="9.4"/>
<rect x="186.2" y="1" class="st1" width="128.5" height="9.4"/>
<rect x="42.2" y="1" class="st5" width="102.3" height="9.4"/>
<rect x="42.2" y="1" class="st1" width="102.3" height="9.4"/>
<line class="st0" x1="32" y1="1.1" x2="32" y2="59.9"/>
<line class="st0" x1="38.5" y1="70.2" x2="145.7" y2="70.2"/>
<line class="st0" x1="186" y1="70.2" x2="311.9" y2="70.2"/>
<rect x="356.4" y="1" class="st5" width="168" height="9.4"/>
<rect x="356.4" y="1" class="st1" width="168" height="9.4"/>
<rect x="550" y="1" class="st5" width="182" height="9.4"/>
<rect x="550" y="1" class="st1" width="182" height="9.4"/>
<line class="st0" x1="359.4" y1="70.2" x2="524.7" y2="70.2"/>
<line class="st0" x1="559.3" y1="70.2" x2="724.6" y2="70.2"/>
<line class="st1" x1="454.1" y1="10.1" x2="454.1" y2="0.9"/>
<line class="st1" x1="427.4" y1="10.1" x2="427.4" y2="0.9"/>
<line class="st1" x1="670.2" y1="10.1" x2="670.2" y2="0.9"/>
<line class="st1" x1="640.4" y1="10.1" x2="640.4" y2="0.9"/>
<line class="st1" x1="608.6" y1="10.1" x2="608.6" y2="0.9"/>
<polyline class="st1" points="98,59.1 116.6,59.1 108.8,10.8 "/>
<polyline class="st1" points="89.1,59.1 70.5,59.1 78.2,10.8 "/>
</svg>
