<?xml version="1.0"?>
<svg xmlns="http://www.w3.org/2000/svg" viewBox="0 0 24 24">
    <path d="M 12 2 C 9.737 2 7.67275 2.533 6.21875 4.125 C 4.76575 5.716 4 8.226 4 12 C 4 15.774 4.76475 18.284 6.21875 19.875 C 7.67275 21.466 9.737 22 12 22 C 14.263 22 16.32825 21.467 17.78125 19.875 C 19.23425 18.284 20 15.773 20 12 C 20 8.226 19.23425 5.716 17.78125 4.125 C 16.32825 2.533 14.263 2 12 2 z M 11 4 L 17 9 L 13 12 L 17 15 L 11 20 L 11 14 L 8.28125 15.8125 L 7.0625 14.21875 L 10 12 L 7.0625 9.8125 L 8.28125 8.21875 L 11 10 L 11 4 z M 13 8 L 13 10 L 14 9 L 13 8 z M 13 14 L 13 16 L 14 15 L 13 14 z"/>
</svg>
