<?xml version="1.0" encoding="utf-8"?>
<!-- Generator: Adobe Illustrator 19.0.0, SVG Export Plug-In . SVG Version: 6.00 Build 0)  -->
<svg version="1.1" id="Layer_1" xmlns="http://www.w3.org/2000/svg" xmlns:xlink="http://www.w3.org/1999/xlink" x="0px" y="0px"
	 viewBox="0 0 550 130" style="enable-background:new 0 0 550 130;" xml:space="preserve">
<style type="text/css">
	.st0{fill:#ddd;stroke:#ddd;stroke-width:0.1em;stroke-miterlimit:10;}
	.st1{fill-rule:evenodd;clip-rule:evenodd;fill:#ddd;stroke:#fff;stroke-width:0.1em;stroke-miterlimit:10;}
</style>
<polygon class="st0" points="12,37.4 38.9,37.4 38.9,126.2 12,126.2 12,37.4 "/>
<path class="st0" d="M11.6,21.8c0-6.4,5.2-11.6,11.6-11.6c6.4,0,11.6,5.2,11.6,11.6c0,6.4-5.2,11.6-11.6,11.6
	C16.8,33.4,11.6,28.2,11.6,21.8L11.6,21.8z"/>
<polygon class="st0" points="85.5,126.2 62,126.2 62,100.4 61.1,79.3 85.5,126.2 "/>
<polygon class="st0" points="38.9,10 133.3,10 133.3,126.2 109.8,126.2 109.8,37.3 86.7,37.3 86.7,66.6 87.7,87.7 61.5,37.3 
	39,37.3 39,126.2 38.9,10 "/>
<path class="st1" d="M171.6,57h4.8c13.3,0,18.5,5,18.5,23.7c0,17-6.3,24.2-18,24.2h-5.3V57L171.6,57z M179.4,126
	c24.4,0,40.4-13,40.4-46.9c0-29.6-15.2-43.1-39.8-43.1h-33.4v90H179.4L179.4,126z"/>
<polygon class="st0" points="290.7,126 290.7,105 252.1,105 252.1,90.9 283.5,90.9 283.5,69.9 252.1,69.9 252.1,57 289.2,57 
	289.2,36 227.1,36 227.1,126 290.7,126 "/>
<path class="st0" d="M363.2,62.1c-1.8-15.7-11.4-28.5-32.6-28.5c-19,0-33,9.6-33,28.7c0,34.4,43.8,25,43.8,38.6
	c0,4.2-4.1,6.6-10.4,6.6c-2.4,0-5.1-0.8-7.1-2.2c-2.1-1.5-3.6-3.9-4.1-7.1h-23.9c0.5,16.2,13.6,30.1,33.7,30.1
	c20.9,0,35.6-10.1,35.6-31c0-32.7-43.8-24.4-43.8-37.9c0-3.2,2.4-5.1,7.9-5.1c2.4,0,4.7,0.5,6.4,1.6c1.8,1.1,3.2,3,3.6,6.1H363.2
	L363.2,62.1z"/>
<path class="st1" d="M414.7,95.4H399l7.7-32.2L414.7,95.4L414.7,95.4z M391.4,126l2.9-11.9h24.9l3,11.9h24.9l-27.3-90h-25.4
	l-27.3,90H391.4L391.4,126z"/>
<polygon class="st0" points="475.7,36 452.3,36 452.3,126 476.2,126 476.2,97.5 475.3,77 502.5,126 525.8,126 525.8,36 501.9,36 
	501.9,64.6 502.9,85.1 475.7,36 "/>
</svg>
