<!--?xml version="1.0" encoding="utf-8"?-->
<!-- Generator: Adobe Illustrator 19.0.0, SVG Export Plug-In . SVG Version: 6.00 Build 0)  -->
<svg version="1.1" id="logoIndesan" xmlns="http://www.w3.org/2000/svg" xmlns:xlink="http://www.w3.org/1999/xlink"  x="0px" y="0px"  style="" xml:space="preserve" viewBox="0 0 550 130">
<style>
.st1{fill-rule:evenodd;clip-rule:evenodd;fill:none;stroke:#3498db;stroke-width:3;stroke-miterlimit:10;stroke-linecap:round}
</style>
                <path class="st1 mCdhNsim_0" d="M12,37.4L38.9,37.4L38.9,126.2L12,126.2L12,37.4Z"></path>
                <path class="st1 mCdhNsim_1" d="M11.6,21.8c0-6.4,5.2-11.6,11.6-11.6c6.4,0,11.6,5.2,11.6,11.6c0,6.4-5.2,11.6-11.6,11.6
                    C16.8,33.4,11.6,28.2,11.6,21.8L11.6,21.8z"></path>
                <path class="st1 mCdhNsim_2" d="M85.5,126.2L62,126.2L62,100.4L61.1,79.3L85.5,126.2Z"></path>
                <path class="st1  mCdhNsim_3" d="M38.9,10L133.3,10L133.3,126.2L109.8,126.2L109.8,37.3L86.7,37.3L86.7,66.6L87.7,87.7L61.5,37.3L
                    39,37.3L39,126.2L38.9,10Z"></path>
                <path class="st1 mCdhNsim_4" d="M171.6,57h4.8c13.3,0,18.5,5,18.5,23.7c0,17-6.3,24.2-18,24.2h-5.3V57L171.6,57z M179.4,126
                    c24.4,0,40.4-13,40.4-46.9c0-29.6-15.2-43.1-39.8-43.1h-33.4v90H179.4L179.4,126z"></path>
                <path class="st1 mCdhNsim_5" d="M290.7,126L290.7,105L252.1,105L252.1,90.9L283.5,90.9L283.5,69.9L252.1,69.9L252.1,57L289.2,57L
                    289.2,36L227.1,36L227.1,126L290.7,126Z"></path>
                <path class="st1 mCdhNsim_6" d="M363.2,62.1c-1.8-15.7-11.4-28.5-32.6-28.5c-19,0-33,9.6-33,28.7c0,34.4,43.8,25,43.8,38.6
                    c0,4.2-4.1,6.6-10.4,6.6c-2.4,0-5.1-0.8-7.1-2.2c-2.1-1.5-3.6-3.9-4.1-7.1h-23.9c0.5,16.2,13.6,30.1,33.7,30.1
                    c20.9,0,35.6-10.1,35.6-31c0-32.7-43.8-24.4-43.8-37.9c0-3.2,2.4-5.1,7.9-5.1c2.4,0,4.7,0.5,6.4,1.6c1.8,1.1,3.2,3,3.6,6.1H363.2
                    L363.2,62.1z"></path>
                <path class="st1 mCdhNsim_7" d="M414.7,95.4H399l7.7-32.2L414.7,95.4L414.7,95.4z M391.4,126l2.9-11.9h24.9l3,11.9h24.9l-27.3-90h-25.4
                    l-27.3,90H391.4L391.4,126z"></path>
                <path class="st1 mCdhNsim_8" d="M475.7,36L452.3,36L452.3,126L476.2,126L476.2,97.5L475.3,77L502.5,126L525.8,126L525.8,36L501.9,36L
                    501.9,64.6L502.9,85.1L475.7,36Z"></path>
                <style>.mCdhNsim_0{stroke-dasharray:232 234;stroke-dashoffset:233;-webkit-animation:mCdhNsim_draw_0 7200ms linear 0ms infinite,mCdhNsim_fade 7200ms linear 0ms infinite;animation:mCdhNsim_draw_0 7200ms linear 0ms infinite,mCdhNsim_fade 7200ms linear 0ms infinite;}.mCdhNsim_1{stroke-dasharray:73 75;stroke-dashoffset:74;-webkit-animation:mCdhNsim_draw_1 7200ms linear 0ms infinite,mCdhNsim_fade 7200ms linear 0ms infinite;animation:mCdhNsim_draw_1 7200ms linear 0ms infinite,mCdhNsim_fade 7200ms linear 0ms infinite;}.mCdhNsim_2{stroke-dasharray:124 126;stroke-dashoffset:125;-webkit-animation:mCdhNsim_draw_2 7200ms linear 0ms infinite,mCdhNsim_fade 7200ms linear 0ms infinite;animation:mCdhNsim_draw_2 7200ms linear 0ms infinite,mCdhNsim_fade 7200ms linear 0ms infinite;}.mCdhNsim_3{stroke-dasharray:681 683;stroke-dashoffset:682;-webkit-animation:mCdhNsim_draw_3 7200ms linear 0ms infinite,mCdhNsim_fade 7200ms linear 0ms infinite;animation:mCdhNsim_draw_3 7200ms linear 0ms infinite,mCdhNsim_fade 7200ms linear 0ms infinite;}.mCdhNsim_4{stroke-dasharray:422 424;stroke-dashoffset:423;-webkit-animation:mCdhNsim_draw_4 7200ms linear 0ms infinite,mCdhNsim_fade 7200ms linear 0ms infinite;animation:mCdhNsim_draw_4 7200ms linear 0ms infinite,mCdhNsim_fade 7200ms linear 0ms infinite;}.mCdhNsim_5{stroke-dasharray:445 447;stroke-dashoffset:446;-webkit-animation:mCdhNsim_draw_5 7200ms linear 0ms infinite,mCdhNsim_fade 7200ms linear 0ms infinite;animation:mCdhNsim_draw_5 7200ms linear 0ms infinite,mCdhNsim_fade 7200ms linear 0ms infinite;}.mCdhNsim_6{stroke-dasharray:431 433;stroke-dashoffset:432;-webkit-animation:mCdhNsim_draw_6 7200ms linear 0ms infinite,mCdhNsim_fade 7200ms linear 0ms infinite;animation:mCdhNsim_draw_6 7200ms linear 0ms infinite,mCdhNsim_fade 7200ms linear 0ms infinite;}.mCdhNsim_7{stroke-dasharray:395 397;stroke-dashoffset:396;-webkit-animation:mCdhNsim_draw_7 7200ms linear 0ms infinite,mCdhNsim_fade 7200ms linear 0ms infinite;animation:mCdhNsim_draw_7 7200ms linear 0ms infinite,mCdhNsim_fade 7200ms linear 0ms infinite;}.mCdhNsim_8{stroke-dasharray:485 487;stroke-dashoffset:486;-webkit-animation:mCdhNsim_draw_8 7200ms linear 0ms infinite,mCdhNsim_fade 7200ms linear 0ms infinite;animation:mCdhNsim_draw_8 7200ms linear 0ms infinite,mCdhNsim_fade 7200ms linear 0ms infinite;}@-webkit-keyframes mCdhNsim_draw{100%{stroke-dashoffset:0;}}@keyframes mCdhNsim_draw{100%{stroke-dashoffset:0;}}@-webkit-keyframes mCdhNsim_fade{0%{stroke-opacity:1;}94.44444444444444%{stroke-opacity:1;}100%{stroke-opacity:0;}}@keyframes mCdhNsim_fade{0%{stroke-opacity:1;}94.44444444444444%{stroke-opacity:1;}100%{stroke-opacity:0;}}@-webkit-keyframes mCdhNsim_draw_0{11.11111111111111%{stroke-dashoffset: 233}38.88888888888889%{ stroke-dashoffset: 0;}100%{ stroke-dashoffset: 0;}}@keyframes mCdhNsim_draw_0{11.11111111111111%{stroke-dashoffset: 233}38.88888888888889%{ stroke-dashoffset: 0;}100%{ stroke-dashoffset: 0;}}@-webkit-keyframes mCdhNsim_draw_1{12.847222222222221%{stroke-dashoffset: 74}40.625%{ stroke-dashoffset: 0;}100%{ stroke-dashoffset: 0;}}@keyframes mCdhNsim_draw_1{12.847222222222221%{stroke-dashoffset: 74}40.625%{ stroke-dashoffset: 0;}100%{ stroke-dashoffset: 0;}}@-webkit-keyframes mCdhNsim_draw_2{14.583333333333334%{stroke-dashoffset: 125}42.36111111111111%{ stroke-dashoffset: 0;}100%{ stroke-dashoffset: 0;}}@keyframes mCdhNsim_draw_2{14.583333333333334%{stroke-dashoffset: 125}42.36111111111111%{ stroke-dashoffset: 0;}100%{ stroke-dashoffset: 0;}}@-webkit-keyframes mCdhNsim_draw_3{16.319444444444446%{stroke-dashoffset: 682}44.09722222222222%{ stroke-dashoffset: 0;}100%{ stroke-dashoffset: 0;}}@keyframes mCdhNsim_draw_3{16.319444444444446%{stroke-dashoffset: 682}44.09722222222222%{ stroke-dashoffset: 0;}100%{ stroke-dashoffset: 0;}}@-webkit-keyframes mCdhNsim_draw_4{18.055555555555554%{stroke-dashoffset: 423}45.83333333333333%{ stroke-dashoffset: 0;}100%{ stroke-dashoffset: 0;}}@keyframes mCdhNsim_draw_4{18.055555555555554%{stroke-dashoffset: 423}45.83333333333333%{ stroke-dashoffset: 0;}100%{ stroke-dashoffset: 0;}}@-webkit-keyframes mCdhNsim_draw_5{19.791666666666664%{stroke-dashoffset: 446}47.56944444444444%{ stroke-dashoffset: 0;}100%{ stroke-dashoffset: 0;}}@keyframes mCdhNsim_draw_5{19.791666666666664%{stroke-dashoffset: 446}47.56944444444444%{ stroke-dashoffset: 0;}100%{ stroke-dashoffset: 0;}}@-webkit-keyframes mCdhNsim_draw_6{21.52777777777778%{stroke-dashoffset: 432}49.30555555555556%{ stroke-dashoffset: 0;}100%{ stroke-dashoffset: 0;}}@keyframes mCdhNsim_draw_6{21.52777777777778%{stroke-dashoffset: 432}49.30555555555556%{ stroke-dashoffset: 0;}100%{ stroke-dashoffset: 0;}}@-webkit-keyframes mCdhNsim_draw_7{23.26388888888889%{stroke-dashoffset: 396}51.041666666666664%{ stroke-dashoffset: 0;}100%{ stroke-dashoffset: 0;}}@keyframes mCdhNsim_draw_7{23.26388888888889%{stroke-dashoffset: 396}51.041666666666664%{ stroke-dashoffset: 0;}100%{ stroke-dashoffset: 0;}}@-webkit-keyframes mCdhNsim_draw_8{25%{stroke-dashoffset: 486}52.77777777777778%{ stroke-dashoffset: 0;}100%{ stroke-dashoffset: 0;}}@keyframes mCdhNsim_draw_8{25%{stroke-dashoffset: 486}52.77777777777778%{ stroke-dashoffset: 0;}100%{ stroke-dashoffset: 0;}}</style></svg>