<?xml version="1.0" encoding="utf-8"?>
<!-- Generator: Adobe Illustrator 19.0.0, SVG Export Plug-In . SVG Version: 6.00 Build 0)  -->
<svg version="1.1" xmlns="http://www.w3.org/2000/svg" xmlns:xlink="http://www.w3.org/1999/xlink" x="0px" y="0px"
	 viewBox="0 0 250 150" style="enable-background:new 0 0 250 150;" xml:space="preserve">
<style type="text/css">
	.st0{display:none;}
	.st1{display:inline;fill:none;stroke:#010202;stroke-width:0.5;stroke-miterlimit:3.864;}
	.st2{fill:none;stroke:#010202;stroke-width:0.5;stroke-miterlimit:3.864;}
	.st3{fill:#010202;}
	.st4{font-family:'Raleway';}
	.st5{font-size:25px;}
	.st6{stroke:#010202;stroke-width:0.5;stroke-miterlimit:3.864;}
</style>
<g id="Capa_2" class="st0">
	<rect id="XMLID_14_" x="68.5" y="30.2" class="st1" width="132.2" height="3.3"/>
	<polygon id="XMLID_13_" class="st1" points="190.3,33.5 199.1,33.5 199.4,90.3 196.5,90.3 	"/>
	<polygon id="XMLID_12_" class="st1" points="78.4,33.5 69.6,33.5 69.3,90.3 72.1,90.3 	"/>
	<line id="XMLID_11_" class="st1" x1="77.6" y1="37.8" x2="191.6" y2="37.8"/>
	<line id="XMLID_10_" class="st1" x1="68.3" y1="99.7" x2="200.7" y2="99.7"/>
</g>
<g id="Capa_3">
	<polygon id="XMLID_15_" class="st2" points="222.1,33 230.9,33 231.3,90.2 228.4,90.2 	"/>
	<polygon id="XMLID_9_" class="st2" points="67.7,33 58.9,33 58.6,90.2 61.5,90.2 	"/>
	<line id="XMLID_8_" class="st2" x1="67" y1="37.4" x2="221.8" y2="37.4"/>
	<rect id="XMLID_7_" x="57.8" y="29.7" class="st2" width="174" height="3.3"/>
	<line id="XMLID_6_" class="st2" x1="60.9" y1="99.7" x2="232" y2="99.7"/>
	<line id="XMLID_5_" class="st2" x1="178.4" y1="32.6" x2="178.4" y2="29.6"/>
	<text id="XMLID_3_" transform="matrix(1 0 0 1 12.1115 67.1319)" class="st3 st4 st5">76</text>
	<text id="XMLID_2_" transform="matrix(1 0 0 1 125.6757 126.1128)" class="st3 st4 st5">230</text>
	<line id="XMLID_1_" class="st6" x1="46.3" y1="29.6" x2="46.3" y2="90.8"/>
</g>
</svg>
