<?xml version="1.0" encoding="utf-8"?>
<!-- Generator: Adobe Illustrator 19.0.0, SVG Export Plug-In . SVG Version: 6.00 Build 0)  -->
<svg version="1.1" id="Capa_1" xmlns="http://www.w3.org/2000/svg" xmlns:xlink="http://www.w3.org/1999/xlink" x="0px" y="0px"
	 viewBox="-295 223.3 250 150" style="enable-background:new -295 223.3 250 150;" xml:space="preserve">
<style type="text/css">
	.st0{display:none;}
	.st1{display:inline;fill:none;stroke:#010202;stroke-width:0.5;stroke-miterlimit:3.864;}
	.st2{fill:none;stroke:#000000;stroke-width:0.5;stroke-miterlimit:3.864;}
	.st3{fill:none;stroke:#010202;stroke-width:0.5;stroke-miterlimit:3.864;}
	.st4{fill:#010202;}
	.st5{font-family:'Raleway';}
	.st6{font-size:25px;}
</style>
<g id="Capa_1_1_" class="st0">
	<rect id="XMLID_9_" x="-487.8" y="476.8" class="st1" width="66.5" height="3.8"/>
	<polygon id="XMLID_8_" class="st1" points="-431.8,480.6 -421.6,480.6 -421.3,546.3 -424.6,546.3 	"/>
	<polygon id="XMLID_7_" class="st1" points="-476.4,480.6 -486.6,480.6 -486.9,546.3 -483.6,546.3 	"/>
	<line id="XMLID_6_" class="st1" x1="-477.3" y1="485.6" x2="-431.6" y2="485.6"/>
</g>
<g id="Capa_2">
	<rect x="-229.9" y="251.8" class="st2" width="152.5" height="3.8"/>
	<polygon class="st2" points="-89.4,255.6 -79.2,255.6 -78.9,321.1 -82.2,321.1 	"/>
	<polygon class="st2" points="-218.6,255.6 -228.7,255.6 -229,321.1 -225.7,321.1 	"/>
	<line class="st2" x1="-219.4" y1="260.6" x2="-87.9" y2="260.6"/>
	<line class="st2" x1="-230.1" y1="332" x2="-80.7" y2="332"/>
	<line id="XMLID_5_" class="st3" x1="-245.9" y1="251.8" x2="-245.9" y2="320"/>
	<text id="XMLID_3_" transform="matrix(1 0 0 1 -279.9321 297.6208)" class="st4 st5 st6">76</text>
	<text id="XMLID_2_" transform="matrix(1 0 0 1 -170.0003 351.2706)" class="st4 st5 st6">120</text>
</g>
</svg>
