<?xml version="1.0" encoding="utf-8"?>
<!-- Generator: Adobe Illustrator 19.0.0, SVG Export Plug-In . SVG Version: 6.00 Build 0)  -->
<svg version="1.1" id="Capa_1" xmlns="http://www.w3.org/2000/svg" xmlns:xlink="http://www.w3.org/1999/xlink" x="0px" y="0px"
	 viewBox="-295 223.3 250 150" style="enable-background:new -295 223.3 250 150;" xml:space="preserve">
<style type="text/css">
	.st0{display:none;}
	.st1{display:inline;fill:none;stroke:#010202;stroke-width:0.5;stroke-miterlimit:3.864;}
	.st2{fill:none;stroke:#010202;stroke-width:0.5;stroke-miterlimit:3.864;}
	.st3{fill:#010202;}
	.st4{font-family:'Raleway';}
	.st5{font-size:25px;}
</style>
<g id="Capa_2" class="st0">
	<rect id="XMLID_14_" x="-1111.5" y="923.4" class="st1" width="132.2" height="3.3"/>
	<polygon id="XMLID_13_" class="st1" points="-989.7,926.7 -980.9,926.7 -980.6,983.5 -983.5,983.5 	"/>
	<polygon id="XMLID_12_" class="st1" points="-1101.6,926.7 -1110.4,926.7 -1110.7,983.5 -1107.9,983.5 	"/>
	<line id="XMLID_11_" class="st1" x1="-1102.4" y1="931" x2="-988.4" y2="931"/>
	<line id="XMLID_10_" class="st1" x1="-1111.7" y1="992.9" x2="-979.3" y2="992.9"/>
</g>
<g id="Capa_3">
	<polygon id="XMLID_15_" class="st2" points="-76.9,253.5 -68.1,253.5 -67.7,310.7 -70.6,310.7 	"/>
	<polygon id="XMLID_9_" class="st2" points="-231.3,253.5 -240.1,253.5 -240.4,310.7 -237.5,310.7 	"/>
	<line id="XMLID_8_" class="st2" x1="-232" y1="257.9" x2="-77.2" y2="257.9"/>
	<rect id="XMLID_7_" x="-241.2" y="250.2" class="st2" width="174" height="3.3"/>
	<line id="XMLID_6_" class="st2" x1="-238.1" y1="320.2" x2="-67" y2="320.2"/>
	<line id="XMLID_5_" class="st2" x1="-120.6" y1="253.1" x2="-120.6" y2="250.1"/>
	<text id="XMLID_3_" transform="matrix(1 0 0 1 -286.938 287.5055)" class="st3 st4 st5">76</text>
	<text id="XMLID_2_" transform="matrix(1 0 0 1 -173.3737 346.4864)" class="st3 st4 st5">190</text>
	<line id="XMLID_1_" class="st2" x1="-252.7" y1="250.1" x2="-252.7" y2="311.3"/>
</g>
</svg>
