<?xml version="1.0" encoding="utf-8"?>
<!-- Generator: Adobe Illustrator 19.0.0, SVG Export Plug-In . SVG Version: 6.00 Build 0)  -->
<svg version="1.1" id="Capa_3" xmlns="http://www.w3.org/2000/svg" xmlns:xlink="http://www.w3.org/1999/xlink" x="0px" y="0px"
	 viewBox="-295 223.3 250 150" style="enable-background:new -295 223.3 250 150;" xml:space="preserve">
<style type="text/css">
	.st0{fill:none;stroke:#000000;stroke-width:0.5;stroke-miterlimit:3.864;}
	.st1{fill:#FFFFFF;}
	.st2{font-family:'Raleway';}
	.st3{font-size:25px;}
</style>
<rect x="-244.6" y="255.4" class="st0" width="118.5" height="2.7"/>
<rect x="-233.1" y="258.3" class="st1" width="1.2" height="13.1"/>
<rect x="-233.1" y="258.3" class="st0" width="1.2" height="13.1"/>
<rect x="-138.9" y="258.3" class="st1" width="1.2" height="13.1"/>
<rect x="-138.9" y="258.3" class="st0" width="1.2" height="13.1"/>
<line class="st0" x1="-118.4" y1="254.9" x2="-118.4" y2="324.6"/>
<line class="st0" x1="-111.6" y1="261.3" x2="-111.6" y2="324.6"/>
<text transform="matrix(1 0 0 1 -104.3822 303.6245)" class="st2 st3">55,5</text>
<text transform="matrix(1 0 0 1 -105.435 269.8686)" class="st2 st3">58</text>
<rect x="-240.3" y="271.4" class="st1" width="110.9" height="6.8"/>
<rect x="-240.3" y="271.4" class="st0" width="110.9" height="6.8"/>
<polygon class="st1" points="-127.6,271.9 -137.3,271.9 -129.8,324.5 -126.6,324.5 "/>
<polygon class="st0" points="-127.6,271.9 -137.3,271.9 -129.8,324.5 -126.6,324.5 "/>
<polygon class="st1" points="-242.9,271.9 -233.1,271.9 -240.7,324.5 -243.9,324.5 "/>
<polygon class="st0" points="-242.9,271.9 -233.1,271.9 -240.7,324.5 -243.9,324.5 "/>
<line class="st0" x1="-245.4" y1="334.8" x2="-125.4" y2="334.8"/>
<text transform="matrix(1 0 0 1 -205.5355 357.2848)" class="st2 st3">115</text>
</svg>
