<?xml version="1.0" encoding="utf-8"?>
<!-- Generator: Adobe Illustrator 19.0.0, SVG Export Plug-In . SVG Version: 6.00 Build 0)  -->
<svg version="1.1" xmlns="http://www.w3.org/2000/svg" xmlns:xlink="http://www.w3.org/1999/xlink" x="0px" y="0px"
	 viewBox="-295 223.3 250 150" style="enable-background:new -295 223.3 250 150;" xml:space="preserve">
<style type="text/css">
	.st0{display:none;}
	.st1{display:inline;fill:none;stroke:#010202;stroke-width:0.5;stroke-miterlimit:3.864;}
	.st2{fill:none;stroke:#000000;stroke-width:0.5;stroke-miterlimit:3.864;}
	.st3{fill:none;stroke:#010202;stroke-width:0.5;stroke-miterlimit:3.864;}
	.st4{fill:#010202;}
	.st5{font-family:'Raleway';}
	.st6{font-size:25px;}
</style>
<g id="Capa_1" class="st0">
	<rect id="XMLID_9_" x="-192.8" y="253.5" class="st1" width="66.5" height="3.8"/>
	<polygon id="XMLID_8_" class="st1" points="-136.8,257.3 -126.6,257.3 -126.3,323 -129.6,323 	"/>
	<polygon id="XMLID_7_" class="st1" points="-181.4,257.3 -191.6,257.3 -191.9,323 -188.6,323 	"/>
	<line id="XMLID_6_" class="st1" x1="-182.3" y1="262.3" x2="-136.6" y2="262.3"/>
</g>
<g id="Capa_2">
	<rect x="-237.2" y="253.6" class="st2" width="152.5" height="3.8"/>
	<polygon class="st2" points="-96.7,257.4 -86.5,257.4 -86.2,322.9 -89.5,322.9 	"/>
	<polygon class="st2" points="-225.9,257.4 -236,257.4 -236.3,322.9 -233,322.9 	"/>
	<line class="st2" x1="-226.7" y1="262.4" x2="-95.2" y2="262.4"/>
	<line class="st2" x1="-237.4" y1="333.8" x2="-88" y2="333.8"/>
	<line id="XMLID_5_" class="st3" x1="-253.2" y1="253.6" x2="-253.2" y2="321.8"/>
	<text id="XMLID_3_" transform="matrix(1 0 0 1 -287.239 299.3903)" class="st4 st5 st6">76</text>
	<text id="XMLID_2_" transform="matrix(1 0 0 1 -170.902 353.0398)" class="st4 st5 st6">140</text>
</g>
</svg>
