<?xml version="1.0" encoding="utf-8"?>
<!-- Generator: Adobe Illustrator 19.0.0, SVG Export Plug-In . SVG Version: 6.00 Build 0)  -->
<svg version="1.1" id="Capa_1" xmlns="http://www.w3.org/2000/svg" xmlns:xlink="http://www.w3.org/1999/xlink" x="0px" y="0px"
	 viewBox="-295 223.3 250 150" style="enable-background:new -295 223.3 250 150;" xml:space="preserve">
<style type="text/css">
	.st0{display:none;}
	.st1{display:inline;fill:none;stroke:#010202;stroke-width:0.5;stroke-miterlimit:3.864;}
	.st2{fill:none;stroke:#010202;stroke-width:0.5;stroke-miterlimit:3.864;}
	.st3{fill:#010202;}
	.st4{font-family:'Raleway';}
	.st5{font-size:25px;}
</style>
<g id="Capa_2" class="st0">
	<rect id="XMLID_14_" x="-226.5" y="253.5" class="st1" width="132.2" height="3.3"/>
	<polygon id="XMLID_13_" class="st1" points="-104.7,256.8 -95.9,256.8 -95.6,313.6 -98.5,313.6 	"/>
	<polygon id="XMLID_12_" class="st1" points="-216.6,256.8 -225.4,256.8 -225.7,313.6 -222.9,313.6 	"/>
	<line id="XMLID_11_" class="st1" x1="-217.4" y1="261.1" x2="-103.4" y2="261.1"/>
	<line id="XMLID_10_" class="st1" x1="-226.7" y1="323" x2="-94.3" y2="323"/>
</g>
<g id="Capa_3">
	<polygon id="XMLID_15_" class="st2" points="-72.9,256.3 -64.1,256.3 -63.7,313.5 -66.6,313.5 	"/>
	<polygon id="XMLID_9_" class="st2" points="-227.3,256.3 -236.1,256.3 -236.4,313.5 -233.5,313.5 	"/>
	<line id="XMLID_8_" class="st2" x1="-228" y1="260.7" x2="-73.2" y2="260.7"/>
	<rect id="XMLID_7_" x="-237.2" y="253" class="st2" width="174" height="3.3"/>
	<line id="XMLID_6_" class="st2" x1="-234.1" y1="323" x2="-63" y2="323"/>
	<line id="XMLID_5_" class="st2" x1="-116.6" y1="255.9" x2="-116.6" y2="252.9"/>
	<text id="XMLID_3_" transform="matrix(1 0 0 1 -282.8885 290.4119)" class="st3 st4 st5">76</text>
	<text id="XMLID_2_" transform="matrix(1 0 0 1 -169.3243 349.3928)" class="st3 st4 st5">210</text>
	<line id="XMLID_1_" class="st2" x1="-248.7" y1="252.9" x2="-248.7" y2="314.1"/>
</g>
</svg>
