<?xml version="1.0" encoding="utf-8"?>
<!-- Generator: Adobe Illustrator 19.0.0, SVG Export Plug-In . SVG Version: 6.00 Build 0)  -->
<svg version="1.1" id="Capa_1" xmlns="http://www.w3.org/2000/svg" xmlns:xlink="http://www.w3.org/1999/xlink" x="0px" y="0px"
	 viewBox="0 0 250 150" style="enable-background:new 0 0 250 150;" xml:space="preserve">
<style type="text/css">
	.st0{fill:none;stroke:#010202;stroke-width:0.5;stroke-miterlimit:3.864;}
	.st1{fill:#FFFFFF;}
	.st2{fill:#010202;}
	.st3{font-family:'Raleway', 'Open Sans', sans-serif;}
	.st4{font-size:26.9692px;}
	.st5{letter-spacing:-1;}
</style>
<path id="XMLID_65_" class="st0" d="M19,1.9h161.1v3.7H19V1.9z M165.6,32.8h14.6v62.7h-14.6V32.8z M19,32.8h14.6v62.7H19V32.8z
	 M19,23.6h161.1v9.3H19V23.6z"/>
<rect id="XMLID_64_" x="34.6" y="5.7" class="st1" width="1.7" height="17.9"/>
<rect id="XMLID_63_" x="34.6" y="5.7" class="st0" width="1.7" height="17.9"/>
<rect id="XMLID_62_" x="162.6" y="5.7" class="st1" width="1.7" height="17.9"/>
<rect id="XMLID_61_" x="162.6" y="5.7" class="st0" width="1.7" height="17.9"/>
<path id="XMLID_58_" class="st0" d="M199.7,23.1v72.8 M190.5,1.1v94.8"/>
<text id="XMLID_57_" transform="matrix(1 0 0 1 212.2984 72.3684)" class="st2 st3 st4">55</text>
<text id="XMLID_56_" transform="matrix(1 0 0 1 205.6109 22.6633)" class="st2 st3 st4">57</text>
<text id="XMLID_55_" transform="matrix(1 0 0 1 68.1344 140.1433)"><tspan x="0" y="0" class="st2 st3 st4 st5">1</tspan><tspan x="13" y="0" class="st2 st3 st4">15</tspan></text>
<line id="XMLID_54_" class="st0" x1="18.1" y1="105.3" x2="181.1" y2="105.3"/>
</svg>
